# xmcd
#
# Track frame offsets: 
#        150
#        12063
#        26264
#        32700
#        50910
#        66833
#        90254
#        96636
#        117723
#        136778
#        154949
#        169151
#
# Disc length: 2497 seconds
#
# Revision: 0
# Processed by: cddbd v1.5.2PL0 Copyright (c) Steve Scherf et al.
# Submitted via: ExactAudioCopyFreeDBPlugin 1.0
#
DISCID=9c09bf0c
DTITLE=Sixth Sense - Grand's Sixth Sense
DYEAR=2011
DGENRE=Hip-Hop
TTITLE0=Bad Day
TTITLE1=Curriculum
TTITLE2=Hard Headed
TTITLE3=Laws of Gravity (ft. Odd Jobs)
TTITLE4=The Search Goes On 
TTITLE5=Disconnected
TTITLE6=1-800-Civilization
TTITLE7=All In Your Head
TTITLE8=Styrofoam
TTITLE9=Powder Water
TTITLE10=I'm Gonna Be Me
TTITLE11=Be Alright
EXTD=
EXTT0=
EXTT1=
EXTT2=
EXTT3=
EXTT4=
EXTT5=
EXTT6=
EXTT7=
EXTT8=
EXTT9=
EXTT10=
EXTT11=
PLAYORDER=
